<svg xmlns="http://www.w3.org/2000/svg"><symbol id="icon-accesibility" fill="currentcolor" viewBox="0 0 94.691 94.691"><path d="M41.035 83.61c-11.92 0-21.617-9.697-21.617-21.617 0-7.323 3.771-14.187 9.909-18.158l-2.195-11.429C15.655 37.799 8.336 49.221 8.336 61.992c0 18.029 14.669 32.699 32.699 32.699 8.829 0 17.336-3.624 23.486-9.975l-4.729-11.988C55.979 79.355 48.826 83.61 41.035 83.61"/><path d="M85.932 86.391 70.962 48.43a6.05 6.05 0 0 0-5.88-4.619l-16.108-.021-1.126-5.862h17.359a6.077 6.077 0 0 0 6.072-6.069 6.08 6.08 0 0 0-6.072-6.071H45.515l-1.002-5.218.543-.561a11.74 11.74 0 0 0 3.331-8.207C48.387 5.294 43.093 0 36.584 0c-6.508 0-11.801 5.294-11.801 11.802 0 4.695 2.785 8.943 7.096 10.821l.725.315 5.392 28.064c.021.098.041.174.062.252l.176.606c.031.087.063.18.099.269l.088.201c.055.121.104.227.157.329l.099.179c.06.105.125.215.193.319l.102.153q.112.16.237.316l.092.116q.14.165.289.319l.077.08c.133.135.253.242.376.346l.091.081c.106.086.254.196.406.301l.151.095c.095.061.201.129.314.19l.131.067c.171.086.271.138.374.184l.181.074c.139.055.242.094.348.129l.207.064c.123.037.246.066.37.096l.185.041q.216.041.446.066l.118.018c.168.017.351.029.536.031l.086-.002 16.881.021 13.771 34.9a6.04 6.04 0 0 0 5.649 3.844c.759 0 1.509-.145 2.228-.428 3.111-1.223 4.644-4.755 3.416-7.868"/></symbol><symbol id="icon-close" fill="currentColor" stroke="currentColor" stroke-width="3" viewBox="0 0 24 24"><path d="M10.586 12 2.793 4.207l1.414-1.414L12 10.586l7.793-7.793 1.414 1.414L13.414 12l7.793 7.793-1.414 1.414L12 13.414l-7.793 7.793-1.414-1.414z"/></symbol><symbol id="icon-setting" fill="currentColor" viewBox="0 0 24 24"><path d="M2.131 13.63a10 10 0 0 1 .001-3.26c1.101.026 2.092-.502 2.477-1.431.385-.93.058-2.003-.74-2.763a10 10 0 0 1 2.306-2.307c.76.798 1.834 1.125 2.763.74.93-.385 1.458-1.376 1.431-2.477a10 10 0 0 1 3.261 0c-.026 1.102.502 2.092 1.431 2.477.93.385 2.003.058 2.763-.74a10 10 0 0 1 2.307 2.306c-.798.76-1.125 1.834-.74 2.764s1.376 1.458 2.477 1.43a10 10 0 0 1 0 3.262c-1.102-.027-2.092.501-2.477 1.43-.385.93-.058 2.004.74 2.764a10 10 0 0 1-2.306 2.306c-.76-.798-1.834-1.125-2.764-.74s-1.458 1.376-1.43 2.478a10 10 0 0 1-3.262-.001c.027-1.101-.502-2.092-1.43-2.477-.93-.385-2.004-.058-2.764.74a10 10 0 0 1-2.306-2.306c.798-.76 1.125-1.834.74-2.763-.385-.93-1.376-1.458-2.478-1.431M12 15a3 3 0 1 0 0-6 3 3 0 0 0 0 6"/></symbol><symbol id="icon-dark" fill="currentColor" viewBox="0 0 24 24"><path d="M11.38 2.019a7.5 7.5 0 1 0 10.6 10.6C21.662 17.854 17.316 22 12.001 22 6.477 22 2 17.523 2 12c0-5.315 4.146-9.661 9.38-9.981"/></symbol><symbol id="icon-light" fill="currentColor" viewBox="0 0 24 24"><path d="M12 18a6 6 0 1 1 0-12 6 6 0 0 1 0 12M11 1h2v3h-2zm0 19h2v3h-2zM3.515 4.929l1.414-1.414L7.05 5.636 5.636 7.05zM16.95 18.364l1.414-1.414 2.121 2.121-1.414 1.414zm2.121-14.85 1.414 1.415-2.121 2.121-1.414-1.414zM5.636 16.95l1.414 1.414-2.121 2.121-1.414-1.414zM23 11v2h-3v-2zM4 11v2H1v-2z"/></symbol><symbol id="icon-info" fill="currentColor" viewBox="0 0 24 24"><path d="M12 22C6.477 22 2 17.523 2 12S6.477 2 12 2s10 4.477 10 10-4.477 10-10 10m0-12.5a1.5 1.5 0 1 0 0-3 1.5 1.5 0 0 0 0 3m2 5.5h-1v-4.5h-3v2h1V15h-1v2h4z"/></symbol><symbol id="icon-arrow" fill="none" viewBox="0 0 24 24"><path fill="currentcolor" d="M17.919 8.18H6.079c-.96 0-1.44 1.16-.76 1.84l5.18 5.18c.83.83 2.18.83 3.01 0l1.97-1.97 3.21-3.21c.67-.68.19-1.84-.77-1.84"/></symbol><symbol id="icon-plus" fill="currentColor" viewBox="0 0 24 24"><path d="M11 11V7h2v4h4v2h-4v4h-2v-4H7v-2zm1 11C6.477 22 2 17.523 2 12S6.477 2 12 2s10 4.477 10 10-4.477 10-10 10m0-2a8 8 0 1 0 0-16 8 8 0 0 0 0 16"/></symbol><symbol id="icon-minus" fill="currentColor" viewBox="0 0 24 24"><path d="M12 22C6.477 22 2 17.523 2 12S6.477 2 12 2s10 4.477 10 10-4.477 10-10 10m0-2a8 8 0 1 0 0-16 8 8 0 0 0 0 16m-5-9h10v2H7z"/></symbol><symbol id="icon-close-circle" fill="currentColor" viewBox="0 0 24 24"><path d="M12 22C6.477 22 2 17.523 2 12S6.477 2 12 2s10 4.477 10 10-4.477 10-10 10m0-2a8 8 0 1 0 0-16 8 8 0 0 0 0 16m0-9.414 2.828-2.829 1.415 1.415L13.414 12l2.829 2.828-1.415 1.415L12 13.414l-2.828 2.829-1.415-1.415L10.586 12 7.757 9.172l1.415-1.415z"/></symbol><symbol id="icon-check" fill="currentColor" stroke="currentColor" stroke-width="2" viewBox="0 0 24 24"><path d="m10 15.17 9.192-9.191 1.414 1.414L10 17.999l-6.364-6.364 1.414-1.414z"/></symbol><symbol id="icon-github" fill="currentColor" viewBox="0 0 24 24"><path d="M12.001 2c-5.525 0-10 4.475-10 10a9.99 9.99 0 0 0 6.837 9.488c.5.087.688-.213.688-.476 0-.237-.013-1.024-.013-1.862-2.512.463-3.162-.612-3.362-1.175-.113-.288-.6-1.175-1.025-1.413-.35-.187-.85-.65-.013-.662.788-.013 1.35.725 1.538 1.025.9 1.512 2.337 1.087 2.912.825.088-.65.35-1.087.638-1.337-2.225-.25-4.55-1.113-4.55-4.938 0-1.088.387-1.987 1.025-2.687-.1-.25-.45-1.275.1-2.65 0 0 .837-.263 2.75 1.024a9.3 9.3 0 0 1 2.5-.337c.85 0 1.7.112 2.5.337 1.913-1.3 2.75-1.024 2.75-1.024.55 1.375.2 2.4.1 2.65.637.7 1.025 1.587 1.025 2.687 0 3.838-2.337 4.688-4.562 4.938.362.312.675.912.675 1.85 0 1.337-.013 2.412-.013 2.75 0 .262.188.574.688.474A10.02 10.02 0 0 0 22 12c0-5.525-4.475-10-10-10"/></symbol><symbol id="icon-npm" fill="currentColor" viewBox="0 0 24 24"><path d="M20.001 3a1 1 0 0 1 1 1v16a1 1 0 0 1-1 1h-16a1 1 0 0 1-1-1V4a1 1 0 0 1 1-1zm-3 4h-10v10h5V9.5h2.5V17h2.5z"/></symbol><symbol id="icon-reset" fill="currentColor" viewBox="0 0 24 24"><path d="M12 4a7.99 7.99 0 0 1 6.616 3.5H16v2h6v-6h-2V6a9.98 9.98 0 0 0-8-4C6.477 2 2 6.477 2 12h2a8 8 0 0 1 8-8m8 8a8 8 0 0 1-14.616 4.5H8v-2H2v6h2V18a9.98 9.98 0 0 0 8 4c5.523 0 10-4.477 10-10z"/></symbol><symbol id="logo" viewBox="0 0 780 100"><path fill="currentcolor" stroke-width="1.53" d="M130 90C0 89.713 10 100 10 30c0 0 .125-20 20.063-20S50 20 50 30 40 60 40 70s0 10 10 10h70c0-10-10-10-10-20s0-30 20-30 20 20 20 30-10 10-10 20h70c10 0 10 0 10-10s-10-30-10-40-1-20 19.5-20S250 30 250 30c0 70 10 60.287-120 60M650 90c-130-.287-120 10-120-60 0 0 .125-20 20.063-20S570 20 570 30s-10 30-10 40 0 10 10 10h70c0-10-10-10-10-20s0-30 20-30 20 20 20 30-10 10-10 20h70c10 0 10 0 10-10s-10-30-10-40-1-20 19.5-20S770 30 770 30c0 70 10 60.287-120 60M270 70c0-70-10-60 120-60S510 0 510 70c0 0 0 20.323-20 20.323S470 80 470 70s10-30.194 10-40 0-10-10-10H310c-10 0-10 0-10 10s10 30.25 10 40 0 20-20 20-20-20-20-20"/><path fill="currentcolor" stroke-width="1.53" d="M389.5 40c-39.5-.222-59.542-2.224-59.5 10s20 10 59.5 10 60.458 2.515 60.5-10-21-9.778-60.5-10"/></symbol><symbol id="icon-play" viewBox="0 0 24 24"><path fill="currentColor" d="M19.376 12.416 8.777 19.482A.5.5 0 0 1 8 19.066V4.934a.5.5 0 0 1 .777-.416l10.599 7.066a.5.5 0 0 1 0 .832"/></symbol></svg>