<svg xmlns="http://www.w3.org/2000/svg">
    <symbol id="icon-close" viewBox="0 0 24 24" fill="currentColor" stroke="currentColor" stroke-width="3">
        <path d="M10.5859 12L2.79297 4.20706L4.20718 2.79285L12.0001 10.5857L19.793 2.79285L21.2072 4.20706L13.4143 12L21.2072 19.7928L19.793 21.2071L12.0001 13.4142L4.20718 21.2071L2.79297 19.7928L10.5859 12Z"></path>
    </symbol>
    <symbol id="icon-setting" viewBox="0 0 24 24" fill="currentColor">
        <path d="M2.13127 13.6308C1.9492 12.5349 1.95521 11.434 2.13216 10.3695C3.23337 10.3963 4.22374 9.86798 4.60865 8.93871C4.99357 8.00944 4.66685 6.93557 3.86926 6.17581C4.49685 5.29798 5.27105 4.51528 6.17471 3.86911C6.9345 4.66716 8.0087 4.99416 8.93822 4.60914C9.86774 4.22412 10.3961 3.23332 10.369 2.13176C11.4649 1.94969 12.5658 1.9557 13.6303 2.13265C13.6036 3.23385 14.1319 4.22422 15.0612 4.60914C15.9904 4.99406 17.0643 4.66733 17.8241 3.86975C18.7019 4.49734 19.4846 5.27153 20.1308 6.1752C19.3327 6.93499 19.0057 8.00919 19.3907 8.93871C19.7757 9.86823 20.7665 10.3966 21.8681 10.3695C22.0502 11.4654 22.0442 12.5663 21.8672 13.6308C20.766 13.6041 19.7756 14.1324 19.3907 15.0616C19.0058 15.9909 19.3325 17.0648 20.1301 17.8245C19.5025 18.7024 18.7283 19.4851 17.8247 20.1312C17.0649 19.3332 15.9907 19.0062 15.0612 19.3912C14.1316 19.7762 13.6033 20.767 13.6303 21.8686C12.5344 22.0507 11.4335 22.0447 10.3691 21.8677C10.3958 20.7665 9.86749 19.7761 8.93822 19.3912C8.00895 19.0063 6.93508 19.333 6.17532 20.1306C5.29749 19.503 4.51479 18.7288 3.86862 17.8252C4.66667 17.0654 4.99367 15.9912 4.60865 15.0616C4.22363 14.1321 3.23284 13.6038 2.13127 13.6308ZM11.9997 15.0002C13.6565 15.0002 14.9997 13.657 14.9997 12.0002C14.9997 10.3433 13.6565 9.00018 11.9997 9.00018C10.3428 9.00018 8.99969 10.3433 8.99969 12.0002C8.99969 13.657 10.3428 15.0002 11.9997 15.0002Z"></path>
    </symbol>
    <symbol id="icon-dark" viewBox="0 0 24 24" fill="currentColor">
        <path d="M11.3807 2.01886C9.91573 3.38768 9 5.3369 9 7.49999C9 11.6421 12.3579 15 16.5 15C18.6631 15 20.6123 14.0843 21.9811 12.6193C21.6613 17.8537 17.3149 22 12 22C6.47715 22 2 17.5228 2 12C2 6.68514 6.14629 2.33869 11.3807 2.01886Z"></path>
    </symbol>
    <symbol id="icon-light" viewBox="0 0 24 24" fill="currentColor">
        <path d="M12 18C8.68629 18 6 15.3137 6 12C6 8.68629 8.68629 6 12 6C15.3137 6 18 8.68629 18 12C18 15.3137 15.3137 18 12 18ZM11 1H13V4H11V1ZM11 20H13V23H11V20ZM3.51472 4.92893L4.92893 3.51472L7.05025 5.63604L5.63604 7.05025L3.51472 4.92893ZM16.9497 18.364L18.364 16.9497L20.4853 19.0711L19.0711 20.4853L16.9497 18.364ZM19.0711 3.51472L20.4853 4.92893L18.364 7.05025L16.9497 5.63604L19.0711 3.51472ZM5.63604 16.9497L7.05025 18.364L4.92893 20.4853L3.51472 19.0711L5.63604 16.9497ZM23 11V13H20V11H23ZM4 11V13H1V11H4Z"></path>
    </symbol>
    <symbol id="icon-info" viewBox="0 0 24 24" fill="currentColor">
        <path d="M12 22C6.47715 22 2 17.5228 2 12C2 6.47715 6.47715 2 12 2C17.5228 2 22 6.47715 22 12C22 17.5228 17.5228 22 12 22ZM12 9.5C12.8284 9.5 13.5 8.82843 13.5 8C13.5 7.17157 12.8284 6.5 12 6.5C11.1716 6.5 10.5 7.17157 10.5 8C10.5 8.82843 11.1716 9.5 12 9.5ZM14 15H13V10.5H10V12.5H11V15H10V17H14V15Z"></path>
    </symbol>
    <symbol id="icon-arrow" viewBox="0 0 24 24" fill="none">
        <path d="M17.9188 8.17969H11.6888H6.07877C5.11877 8.17969 4.63877 9.33969 5.31877 10.0197L10.4988 15.1997C11.3288 16.0297 12.6788 16.0297 13.5088 15.1997L15.4788 13.2297L18.6888 10.0197C19.3588 9.33969 18.8788 8.17969 17.9188 8.17969Z" fill="currentcolor"></path>
    </symbol>
    <symbol id="icon-plus" viewBox="0 0 24 24" fill="currentColor">
        <path d="M11 11V7H13V11H17V13H13V17H11V13H7V11H11ZM12 22C6.47715 22 2 17.5228 2 12C2 6.47715 6.47715 2 12 2C17.5228 2 22 6.47715 22 12C22 17.5228 17.5228 22 12 22ZM12 20C16.4183 20 20 16.4183 20 12C20 7.58172 16.4183 4 12 4C7.58172 4 4 7.58172 4 12C4 16.4183 7.58172 20 12 20Z"></path>
    </symbol>
    <symbol id="icon-minus" viewBox="0 0 24 24" fill="currentColor">
        <path d="M12 22C6.47715 22 2 17.5228 2 12C2 6.47715 6.47715 2 12 2C17.5228 2 22 6.47715 22 12C22 17.5228 17.5228 22 12 22ZM12 20C16.4183 20 20 16.4183 20 12C20 7.58172 16.4183 4 12 4C7.58172 4 4 7.58172 4 12C4 16.4183 7.58172 20 12 20ZM7 11H17V13H7V11Z"></path>
    </symbol>
    <symbol id="icon-close-circle" viewBox="0 0 24 24" fill="currentColor">
        <path d="M12 22C6.47715 22 2 17.5228 2 12C2 6.47715 6.47715 2 12 2C17.5228 2 22 6.47715 22 12C22 17.5228 17.5228 22 12 22ZM12 20C16.4183 20 20 16.4183 20 12C20 7.58172 16.4183 4 12 4C7.58172 4 4 7.58172 4 12C4 16.4183 7.58172 20 12 20ZM12 10.5858L14.8284 7.75736L16.2426 9.17157L13.4142 12L16.2426 14.8284L14.8284 16.2426L12 13.4142L9.17157 16.2426L7.75736 14.8284L10.5858 12L7.75736 9.17157L9.17157 7.75736L12 10.5858Z"></path>
    </symbol>
    <symbol id="icon-check" viewBox="0 0 24 24" fill="currentColor" stroke="currentColor" stroke-width="2">
        <path d="M9.9997 15.1709L19.1921 5.97852L20.6063 7.39273L9.9997 17.9993L3.63574 11.6354L5.04996 10.2212L9.9997 15.1709Z"></path>
    </symbol>

    <symbol id="icon-github" viewBox="0 0 24 24" fill="currentColor">
        <path d="M12.001 2C6.47598 2 2.00098 6.475 2.00098 12C2.00098 16.425 4.86348 20.1625 8.83848 21.4875C9.33848 21.575 9.52598 21.275 9.52598 21.0125C9.52598 20.775 9.51348 19.9875 9.51348 19.15C7.00098 19.6125 6.35098 18.5375 6.15098 17.975C6.03848 17.6875 5.55098 16.8 5.12598 16.5625C4.77598 16.375 4.27598 15.9125 5.11348 15.9C5.90098 15.8875 6.46348 16.625 6.65098 16.925C7.55098 18.4375 8.98848 18.0125 9.56348 17.75C9.65098 17.1 9.91348 16.6625 10.201 16.4125C7.97598 16.1625 5.65098 15.3 5.65098 11.475C5.65098 10.3875 6.03848 9.4875 6.67598 8.7875C6.57598 8.5375 6.22598 7.5125 6.77598 6.1375C6.77598 6.1375 7.61348 5.875 9.52598 7.1625C10.326 6.9375 11.176 6.825 12.026 6.825C12.876 6.825 13.726 6.9375 14.526 7.1625C16.4385 5.8625 17.276 6.1375 17.276 6.1375C17.826 7.5125 17.476 8.5375 17.376 8.7875C18.0135 9.4875 18.401 10.375 18.401 11.475C18.401 15.3125 16.0635 16.1625 13.8385 16.4125C14.201 16.725 14.5135 17.325 14.5135 18.2625C14.5135 19.6 14.501 20.675 14.501 21.0125C14.501 21.275 14.6885 21.5875 15.1885 21.4875C19.259 20.1133 21.9999 16.2963 22.001 12C22.001 6.475 17.526 2 12.001 2Z"></path>
    </symbol>
    <symbol id="icon-npm" viewBox="0 0 24 24" fill="currentColor">
        <path d="M20.001 3C20.5533 3 21.001 3.44772 21.001 4V20C21.001 20.5523 20.5533 21 20.001 21H4.00098C3.44869 21 3.00098 20.5523 3.00098 20V4C3.00098 3.44772 3.44869 3 4.00098 3H20.001ZM17.001 7H7.00098V17H12.001V9.5H14.501V17H17.001V7Z"></path>
    </symbol>


    

    <symbol id="icon-reset" viewBox="0 0 24 24" fill="currentColor">
        <path d="M12 4C14.7486 4 17.1749 5.38626 18.6156 7.5H16V9.5H22V3.5H20V5.99936C18.1762 3.57166 15.2724 2 12 2C6.47715 2 2 6.47715 2 12H4C4 7.58172 7.58172 4 12 4ZM20 12C20 16.4183 16.4183 20 12 20C9.25144 20 6.82508 18.6137 5.38443 16.5H8V14.5H2V20.5H4V18.0006C5.82381 20.4283 8.72764 22 12 22C17.5228 22 22 17.5228 22 12H20Z"></path>
    </symbol>

    <symbol id="logo" viewBox="0 0 780 100">
        <path fill="currentcolor" d="M130,90C0,89.71286,10,100,10,30c0,0,.125-20,20.0625-20C50,10,50,20,50,30s-10,30-10,40s0,10,10,10s70,0,70,0c0-10-10-10-10-20s0-29.999999,20-29.999999s20,19.999999,20,29.999999-10,10-10,20c0,0,60,0,70,0s10,0,10-10-10-30-10-40-1-20,19.5-20s20.5,20,20.5,20c0,70,10,60.28714-120,60Z" stroke-width="1.53"/>
        <path fill="currentcolor" d="M130,90C0,89.71286,10,100,10,30c0,0,.125-20,20.0625-20C50,10,50,20,50,30s-10,30-10,40s0,10,10,10s70,0,70,0c0-10-10-10-10-20s0-29.999999,20-29.999999s20,19.999999,20,29.999999-10,10-10,20c0,0,60,0,70,0s10,0,10-10-10-30-10-40-1-20,19.5-20s20.5,20,20.5,20c0,70,10,60.28714-120,60Z" transform="translate(520 0)" stroke-width="1.53"/>
        <g>
            <path fill="currentcolor" d="M270,70c0-70-10-60,120-60s120-10,120,60c0,0,0,20.323029-20,20.323029s-20-10.323029-20-20.323029s10-30.194389,10-40s0-10-10-10-150,0-160,0-10,0-10,10s10,30.250519,10,40s0,20-20,20-20-20-20-20Z" stroke-width="1.53"/>
            <path fill="currentcolor" d="M389.499967,40c-39.499969-.221664-59.541723-2.223841-59.499969,9.999999s20,10,59.499968,10.000001s60.458217,2.514899,60.500032-10.000001-21.000062-9.778334-60.500031-9.999999Z" stroke-width="1.53"/>
        </g>
    </symbol>
    <symbol id="icon-play" viewBox="0 0 24 24">
        <path fill="currentColor" d="M19.376 12.4161L8.77735 19.4818C8.54759 19.635 8.23715 19.5729 8.08397 19.3432C8.02922 19.261 8 19.1645 8 19.0658V4.93433C8 4.65818 8.22386 4.43433 8.5 4.43433C8.59871 4.43433 8.69522 4.46355 8.77735 4.5183L19.376 11.584C19.6057 11.7372 19.6678 12.0477 19.5146 12.2774C19.478 12.3323 19.4309 12.3795 19.376 12.4161Z"></path>
    </symbol>

</svg>